<mxfile host="app.diagrams.net" modified="2021-09-30T23:09:55.711Z" agent="5.0 (Windows NT 10.0; Win64; x64) AppleWebKit/537.36 (KHTML, like Gecko) Chrome/93.0.4577.82 Safari/537.36 OPR/79.0.4143.50" etag="_6niQlJpRpR_zb52n8d1" version="15.3.7" type="github">
  <diagram id="C5RBs43oDa-KdzZeNtuy" name="Page-1">
    <mxGraphModel dx="828" dy="462" grid="1" gridSize="10" guides="1" tooltips="1" connect="1" arrows="1" fold="1" page="1" pageScale="1" pageWidth="827" pageHeight="1169" math="0" shadow="0">
      <root>
        <mxCell id="WIyWlLk6GJQsqaUBKTNV-0" />
        <mxCell id="WIyWlLk6GJQsqaUBKTNV-1" parent="WIyWlLk6GJQsqaUBKTNV-0" />
        <mxCell id="3FV-UpmjKZ0-qdDAkk3F-6" value="" style="edgeStyle=orthogonalEdgeStyle;rounded=0;orthogonalLoop=1;jettySize=auto;html=1;" edge="1" parent="WIyWlLk6GJQsqaUBKTNV-1" source="3FV-UpmjKZ0-qdDAkk3F-0" target="3FV-UpmjKZ0-qdDAkk3F-5">
          <mxGeometry relative="1" as="geometry" />
        </mxCell>
        <mxCell id="3FV-UpmjKZ0-qdDAkk3F-0" value="&lt;span&gt;Início&lt;/span&gt;" style="ellipse;whiteSpace=wrap;html=1;rounded=1;shadow=0;strokeWidth=1;glass=0;" vertex="1" parent="WIyWlLk6GJQsqaUBKTNV-1">
          <mxGeometry x="150" y="190" width="120" height="60" as="geometry" />
        </mxCell>
        <mxCell id="3FV-UpmjKZ0-qdDAkk3F-8" value="" style="edgeStyle=orthogonalEdgeStyle;rounded=0;orthogonalLoop=1;jettySize=auto;html=1;" edge="1" parent="WIyWlLk6GJQsqaUBKTNV-1" source="3FV-UpmjKZ0-qdDAkk3F-5" target="3FV-UpmjKZ0-qdDAkk3F-7">
          <mxGeometry relative="1" as="geometry" />
        </mxCell>
        <mxCell id="3FV-UpmjKZ0-qdDAkk3F-5" value="Nome do evento" style="shape=parallelogram;perimeter=parallelogramPerimeter;whiteSpace=wrap;html=1;fixedSize=1;rounded=1;shadow=0;strokeWidth=1;glass=0;" vertex="1" parent="WIyWlLk6GJQsqaUBKTNV-1">
          <mxGeometry x="150" y="280" width="120" height="60" as="geometry" />
        </mxCell>
        <mxCell id="3FV-UpmjKZ0-qdDAkk3F-10" value="" style="edgeStyle=orthogonalEdgeStyle;rounded=0;orthogonalLoop=1;jettySize=auto;html=1;" edge="1" parent="WIyWlLk6GJQsqaUBKTNV-1" source="3FV-UpmjKZ0-qdDAkk3F-7" target="3FV-UpmjKZ0-qdDAkk3F-9">
          <mxGeometry relative="1" as="geometry" />
        </mxCell>
        <mxCell id="3FV-UpmjKZ0-qdDAkk3F-7" value="Data do evento" style="shape=parallelogram;perimeter=parallelogramPerimeter;whiteSpace=wrap;html=1;fixedSize=1;rounded=1;shadow=0;strokeWidth=1;glass=0;" vertex="1" parent="WIyWlLk6GJQsqaUBKTNV-1">
          <mxGeometry x="150" y="360" width="120" height="60" as="geometry" />
        </mxCell>
        <mxCell id="3FV-UpmjKZ0-qdDAkk3F-13" value="" style="edgeStyle=orthogonalEdgeStyle;rounded=0;orthogonalLoop=1;jettySize=auto;html=1;" edge="1" parent="WIyWlLk6GJQsqaUBKTNV-1" source="3FV-UpmjKZ0-qdDAkk3F-9" target="3FV-UpmjKZ0-qdDAkk3F-12">
          <mxGeometry relative="1" as="geometry" />
        </mxCell>
        <mxCell id="3FV-UpmjKZ0-qdDAkk3F-16" value="" style="edgeStyle=orthogonalEdgeStyle;rounded=0;orthogonalLoop=1;jettySize=auto;html=1;" edge="1" parent="WIyWlLk6GJQsqaUBKTNV-1" source="3FV-UpmjKZ0-qdDAkk3F-9" target="3FV-UpmjKZ0-qdDAkk3F-15">
          <mxGeometry relative="1" as="geometry" />
        </mxCell>
        <mxCell id="3FV-UpmjKZ0-qdDAkk3F-9" value="Data do evento posterior a data atual?" style="rhombus;whiteSpace=wrap;html=1;rounded=1;shadow=0;strokeWidth=1;glass=0;" vertex="1" parent="WIyWlLk6GJQsqaUBKTNV-1">
          <mxGeometry x="152.5" y="460" width="115" height="120" as="geometry" />
        </mxCell>
        <mxCell id="3FV-UpmjKZ0-qdDAkk3F-21" value="" style="edgeStyle=orthogonalEdgeStyle;rounded=0;orthogonalLoop=1;jettySize=auto;html=1;exitX=0.444;exitY=0;exitDx=0;exitDy=0;exitPerimeter=0;" edge="1" parent="WIyWlLk6GJQsqaUBKTNV-1" source="3FV-UpmjKZ0-qdDAkk3F-12" target="3FV-UpmjKZ0-qdDAkk3F-20">
          <mxGeometry relative="1" as="geometry" />
        </mxCell>
        <mxCell id="3FV-UpmjKZ0-qdDAkk3F-12" value="Permitir o evento" style="whiteSpace=wrap;html=1;rounded=1;shadow=0;strokeWidth=1;glass=0;" vertex="1" parent="WIyWlLk6GJQsqaUBKTNV-1">
          <mxGeometry x="330" y="490" width="135" height="60" as="geometry" />
        </mxCell>
        <mxCell id="3FV-UpmjKZ0-qdDAkk3F-14" value="Sim" style="text;html=1;strokeColor=none;fillColor=none;align=center;verticalAlign=middle;whiteSpace=wrap;rounded=0;" vertex="1" parent="WIyWlLk6GJQsqaUBKTNV-1">
          <mxGeometry x="270" y="500" width="40" height="20" as="geometry" />
        </mxCell>
        <mxCell id="3FV-UpmjKZ0-qdDAkk3F-15" value="Cadastro não permitido, data inválida." style="whiteSpace=wrap;html=1;rounded=1;shadow=0;strokeWidth=1;glass=0;" vertex="1" parent="WIyWlLk6GJQsqaUBKTNV-1">
          <mxGeometry x="150" y="630" width="120" height="60" as="geometry" />
        </mxCell>
        <mxCell id="3FV-UpmjKZ0-qdDAkk3F-17" value="Não" style="text;html=1;strokeColor=none;fillColor=none;align=center;verticalAlign=middle;whiteSpace=wrap;rounded=0;" vertex="1" parent="WIyWlLk6GJQsqaUBKTNV-1">
          <mxGeometry x="411.5" y="90" width="40" height="20" as="geometry" />
        </mxCell>
        <mxCell id="3FV-UpmjKZ0-qdDAkk3F-43" value="" style="edgeStyle=orthogonalEdgeStyle;rounded=0;orthogonalLoop=1;jettySize=auto;html=1;" edge="1" parent="WIyWlLk6GJQsqaUBKTNV-1" source="3FV-UpmjKZ0-qdDAkk3F-20" target="3FV-UpmjKZ0-qdDAkk3F-42">
          <mxGeometry relative="1" as="geometry" />
        </mxCell>
        <mxCell id="3FV-UpmjKZ0-qdDAkk3F-20" value="Nome&lt;br&gt;participante" style="shape=parallelogram;perimeter=parallelogramPerimeter;whiteSpace=wrap;html=1;fixedSize=1;rounded=1;shadow=0;strokeWidth=1;glass=0;" vertex="1" parent="WIyWlLk6GJQsqaUBKTNV-1">
          <mxGeometry x="330" y="360" width="120" height="60" as="geometry" />
        </mxCell>
        <mxCell id="3FV-UpmjKZ0-qdDAkk3F-27" value="" style="edgeStyle=orthogonalEdgeStyle;rounded=0;orthogonalLoop=1;jettySize=auto;html=1;" edge="1" parent="WIyWlLk6GJQsqaUBKTNV-1" source="3FV-UpmjKZ0-qdDAkk3F-24" target="3FV-UpmjKZ0-qdDAkk3F-26">
          <mxGeometry relative="1" as="geometry" />
        </mxCell>
        <mxCell id="3FV-UpmjKZ0-qdDAkk3F-45" value="" style="edgeStyle=orthogonalEdgeStyle;rounded=0;orthogonalLoop=1;jettySize=auto;html=1;" edge="1" parent="WIyWlLk6GJQsqaUBKTNV-1" source="3FV-UpmjKZ0-qdDAkk3F-24" target="3FV-UpmjKZ0-qdDAkk3F-28">
          <mxGeometry relative="1" as="geometry" />
        </mxCell>
        <mxCell id="3FV-UpmjKZ0-qdDAkk3F-24" value="Participante&lt;br&gt;maior de&lt;br&gt;18 anos?" style="rhombus;whiteSpace=wrap;html=1;rounded=1;shadow=0;strokeWidth=1;glass=0;" vertex="1" parent="WIyWlLk6GJQsqaUBKTNV-1">
          <mxGeometry x="335" y="110" width="110" height="110" as="geometry" />
        </mxCell>
        <mxCell id="3FV-UpmjKZ0-qdDAkk3F-32" value="" style="edgeStyle=orthogonalEdgeStyle;rounded=0;orthogonalLoop=1;jettySize=auto;html=1;" edge="1" parent="WIyWlLk6GJQsqaUBKTNV-1" source="3FV-UpmjKZ0-qdDAkk3F-26" target="3FV-UpmjKZ0-qdDAkk3F-31">
          <mxGeometry relative="1" as="geometry" />
        </mxCell>
        <mxCell id="3FV-UpmjKZ0-qdDAkk3F-26" value="Cadastrar Participante" style="whiteSpace=wrap;html=1;rounded=1;shadow=0;strokeWidth=1;glass=0;" vertex="1" parent="WIyWlLk6GJQsqaUBKTNV-1">
          <mxGeometry x="497.5" y="135" width="120" height="60" as="geometry" />
        </mxCell>
        <mxCell id="3FV-UpmjKZ0-qdDAkk3F-53" value="" style="edgeStyle=orthogonalEdgeStyle;rounded=0;orthogonalLoop=1;jettySize=auto;html=1;" edge="1" parent="WIyWlLk6GJQsqaUBKTNV-1" source="3FV-UpmjKZ0-qdDAkk3F-28" target="3FV-UpmjKZ0-qdDAkk3F-52">
          <mxGeometry relative="1" as="geometry" />
        </mxCell>
        <mxCell id="3FV-UpmjKZ0-qdDAkk3F-28" value="Aviso: Cadastro não permitido para menores de idade." style="whiteSpace=wrap;html=1;rounded=1;shadow=0;strokeWidth=1;glass=0;" vertex="1" parent="WIyWlLk6GJQsqaUBKTNV-1">
          <mxGeometry x="330" y="20" width="120" height="60" as="geometry" />
        </mxCell>
        <mxCell id="3FV-UpmjKZ0-qdDAkk3F-30" value="Sim" style="text;html=1;strokeColor=none;fillColor=none;align=center;verticalAlign=middle;whiteSpace=wrap;rounded=0;" vertex="1" parent="WIyWlLk6GJQsqaUBKTNV-1">
          <mxGeometry x="445" y="135" width="40" height="20" as="geometry" />
        </mxCell>
        <mxCell id="3FV-UpmjKZ0-qdDAkk3F-34" value="" style="edgeStyle=orthogonalEdgeStyle;rounded=0;orthogonalLoop=1;jettySize=auto;html=1;" edge="1" parent="WIyWlLk6GJQsqaUBKTNV-1" source="3FV-UpmjKZ0-qdDAkk3F-31" target="3FV-UpmjKZ0-qdDAkk3F-33">
          <mxGeometry relative="1" as="geometry" />
        </mxCell>
        <mxCell id="3FV-UpmjKZ0-qdDAkk3F-36" value="" style="edgeStyle=orthogonalEdgeStyle;rounded=0;orthogonalLoop=1;jettySize=auto;html=1;" edge="1" parent="WIyWlLk6GJQsqaUBKTNV-1" source="3FV-UpmjKZ0-qdDAkk3F-31" target="3FV-UpmjKZ0-qdDAkk3F-35">
          <mxGeometry relative="1" as="geometry" />
        </mxCell>
        <mxCell id="3FV-UpmjKZ0-qdDAkk3F-31" value="Listar&lt;br&gt;participantes" style="shape=parallelogram;perimeter=parallelogramPerimeter;whiteSpace=wrap;html=1;fixedSize=1;rounded=1;shadow=0;strokeWidth=1;glass=0;" vertex="1" parent="WIyWlLk6GJQsqaUBKTNV-1">
          <mxGeometry x="497.5" y="220" width="120" height="60" as="geometry" />
        </mxCell>
        <mxCell id="3FV-UpmjKZ0-qdDAkk3F-33" value="Listar&lt;br&gt;palestrantes" style="shape=parallelogram;perimeter=parallelogramPerimeter;whiteSpace=wrap;html=1;fixedSize=1;rounded=1;shadow=0;strokeWidth=1;glass=0;" vertex="1" parent="WIyWlLk6GJQsqaUBKTNV-1">
          <mxGeometry x="497.5" y="310" width="120" height="60" as="geometry" />
        </mxCell>
        <mxCell id="3FV-UpmjKZ0-qdDAkk3F-38" value="" style="edgeStyle=orthogonalEdgeStyle;rounded=0;orthogonalLoop=1;jettySize=auto;html=1;" edge="1" parent="WIyWlLk6GJQsqaUBKTNV-1" source="3FV-UpmjKZ0-qdDAkk3F-35" target="3FV-UpmjKZ0-qdDAkk3F-37">
          <mxGeometry relative="1" as="geometry" />
        </mxCell>
        <mxCell id="3FV-UpmjKZ0-qdDAkk3F-48" value="" style="edgeStyle=orthogonalEdgeStyle;rounded=0;orthogonalLoop=1;jettySize=auto;html=1;" edge="1" parent="WIyWlLk6GJQsqaUBKTNV-1" source="3FV-UpmjKZ0-qdDAkk3F-35" target="3FV-UpmjKZ0-qdDAkk3F-47">
          <mxGeometry relative="1" as="geometry" />
        </mxCell>
        <mxCell id="3FV-UpmjKZ0-qdDAkk3F-35" value="Nº de participantes menor do que 100?" style="rhombus;whiteSpace=wrap;html=1;rounded=1;shadow=0;strokeWidth=1;glass=0;" vertex="1" parent="WIyWlLk6GJQsqaUBKTNV-1">
          <mxGeometry x="637.5" y="200" width="100" height="100" as="geometry" />
        </mxCell>
        <mxCell id="3FV-UpmjKZ0-qdDAkk3F-51" value="" style="edgeStyle=orthogonalEdgeStyle;rounded=0;orthogonalLoop=1;jettySize=auto;html=1;" edge="1" parent="WIyWlLk6GJQsqaUBKTNV-1" source="3FV-UpmjKZ0-qdDAkk3F-37" target="3FV-UpmjKZ0-qdDAkk3F-50">
          <mxGeometry relative="1" as="geometry" />
        </mxCell>
        <mxCell id="3FV-UpmjKZ0-qdDAkk3F-37" value="Permitir cadastro" style="whiteSpace=wrap;html=1;rounded=1;shadow=0;strokeWidth=1;glass=0;" vertex="1" parent="WIyWlLk6GJQsqaUBKTNV-1">
          <mxGeometry x="627.5" y="340" width="120" height="60" as="geometry" />
        </mxCell>
        <mxCell id="3FV-UpmjKZ0-qdDAkk3F-44" value="" style="edgeStyle=orthogonalEdgeStyle;rounded=0;orthogonalLoop=1;jettySize=auto;html=1;" edge="1" parent="WIyWlLk6GJQsqaUBKTNV-1" source="3FV-UpmjKZ0-qdDAkk3F-42" target="3FV-UpmjKZ0-qdDAkk3F-24">
          <mxGeometry relative="1" as="geometry" />
        </mxCell>
        <mxCell id="3FV-UpmjKZ0-qdDAkk3F-42" value="Data nascimento&lt;br&gt;participante" style="shape=parallelogram;perimeter=parallelogramPerimeter;whiteSpace=wrap;html=1;fixedSize=1;rounded=1;shadow=0;strokeWidth=1;glass=0;" vertex="1" parent="WIyWlLk6GJQsqaUBKTNV-1">
          <mxGeometry x="330" y="250" width="120" height="60" as="geometry" />
        </mxCell>
        <mxCell id="3FV-UpmjKZ0-qdDAkk3F-46" value="Sim" style="text;html=1;strokeColor=none;fillColor=none;align=center;verticalAlign=middle;whiteSpace=wrap;rounded=0;" vertex="1" parent="WIyWlLk6GJQsqaUBKTNV-1">
          <mxGeometry x="690" y="300" width="40" height="20" as="geometry" />
        </mxCell>
        <mxCell id="3FV-UpmjKZ0-qdDAkk3F-55" style="edgeStyle=orthogonalEdgeStyle;rounded=0;orthogonalLoop=1;jettySize=auto;html=1;" edge="1" parent="WIyWlLk6GJQsqaUBKTNV-1" source="3FV-UpmjKZ0-qdDAkk3F-47" target="3FV-UpmjKZ0-qdDAkk3F-52">
          <mxGeometry relative="1" as="geometry" />
        </mxCell>
        <mxCell id="3FV-UpmjKZ0-qdDAkk3F-47" value="Aviso: cadastro não permitido por ter excedido nº de vagas&lt;br&gt;para este evento" style="whiteSpace=wrap;html=1;rounded=1;shadow=0;strokeWidth=1;glass=0;" vertex="1" parent="WIyWlLk6GJQsqaUBKTNV-1">
          <mxGeometry x="627.5" y="100" width="120" height="60" as="geometry" />
        </mxCell>
        <mxCell id="3FV-UpmjKZ0-qdDAkk3F-49" value="Não" style="text;html=1;strokeColor=none;fillColor=none;align=center;verticalAlign=middle;whiteSpace=wrap;rounded=0;" vertex="1" parent="WIyWlLk6GJQsqaUBKTNV-1">
          <mxGeometry x="690" y="180" width="40" height="20" as="geometry" />
        </mxCell>
        <mxCell id="3FV-UpmjKZ0-qdDAkk3F-50" value="Fim" style="ellipse;whiteSpace=wrap;html=1;rounded=1;shadow=0;strokeWidth=1;glass=0;" vertex="1" parent="WIyWlLk6GJQsqaUBKTNV-1">
          <mxGeometry x="627.5" y="440" width="120" height="60" as="geometry" />
        </mxCell>
        <mxCell id="3FV-UpmjKZ0-qdDAkk3F-52" value="Fim" style="ellipse;whiteSpace=wrap;html=1;rounded=1;shadow=0;strokeWidth=1;glass=0;" vertex="1" parent="WIyWlLk6GJQsqaUBKTNV-1">
          <mxGeometry x="497.5" y="20" width="120" height="60" as="geometry" />
        </mxCell>
        <mxCell id="3FV-UpmjKZ0-qdDAkk3F-56" value="" style="edgeStyle=orthogonalEdgeStyle;rounded=0;orthogonalLoop=1;jettySize=auto;html=1;" edge="1" parent="WIyWlLk6GJQsqaUBKTNV-1" source="3FV-UpmjKZ0-qdDAkk3F-57" target="3FV-UpmjKZ0-qdDAkk3F-59">
          <mxGeometry relative="1" as="geometry" />
        </mxCell>
        <mxCell id="3FV-UpmjKZ0-qdDAkk3F-57" value="&lt;span&gt;Início&lt;/span&gt;" style="ellipse;whiteSpace=wrap;html=1;rounded=1;shadow=0;strokeWidth=1;glass=0;" vertex="1" parent="WIyWlLk6GJQsqaUBKTNV-1">
          <mxGeometry x="190" y="900" width="120" height="60" as="geometry" />
        </mxCell>
        <mxCell id="3FV-UpmjKZ0-qdDAkk3F-58" value="" style="edgeStyle=orthogonalEdgeStyle;rounded=0;orthogonalLoop=1;jettySize=auto;html=1;" edge="1" parent="WIyWlLk6GJQsqaUBKTNV-1" source="3FV-UpmjKZ0-qdDAkk3F-59" target="3FV-UpmjKZ0-qdDAkk3F-61">
          <mxGeometry relative="1" as="geometry" />
        </mxCell>
        <mxCell id="3FV-UpmjKZ0-qdDAkk3F-59" value="Nome do evento" style="shape=parallelogram;perimeter=parallelogramPerimeter;whiteSpace=wrap;html=1;fixedSize=1;rounded=1;shadow=0;strokeWidth=1;glass=0;" vertex="1" parent="WIyWlLk6GJQsqaUBKTNV-1">
          <mxGeometry x="190" y="990" width="120" height="60" as="geometry" />
        </mxCell>
        <mxCell id="3FV-UpmjKZ0-qdDAkk3F-60" value="" style="edgeStyle=orthogonalEdgeStyle;rounded=0;orthogonalLoop=1;jettySize=auto;html=1;" edge="1" parent="WIyWlLk6GJQsqaUBKTNV-1" source="3FV-UpmjKZ0-qdDAkk3F-61" target="3FV-UpmjKZ0-qdDAkk3F-64">
          <mxGeometry relative="1" as="geometry" />
        </mxCell>
        <mxCell id="3FV-UpmjKZ0-qdDAkk3F-61" value="Data do evento" style="shape=parallelogram;perimeter=parallelogramPerimeter;whiteSpace=wrap;html=1;fixedSize=1;rounded=1;shadow=0;strokeWidth=1;glass=0;" vertex="1" parent="WIyWlLk6GJQsqaUBKTNV-1">
          <mxGeometry x="190" y="1070" width="120" height="60" as="geometry" />
        </mxCell>
        <mxCell id="3FV-UpmjKZ0-qdDAkk3F-62" value="" style="edgeStyle=orthogonalEdgeStyle;rounded=0;orthogonalLoop=1;jettySize=auto;html=1;" edge="1" parent="WIyWlLk6GJQsqaUBKTNV-1" source="3FV-UpmjKZ0-qdDAkk3F-64" target="3FV-UpmjKZ0-qdDAkk3F-66">
          <mxGeometry relative="1" as="geometry" />
        </mxCell>
        <mxCell id="3FV-UpmjKZ0-qdDAkk3F-63" value="" style="edgeStyle=orthogonalEdgeStyle;rounded=0;orthogonalLoop=1;jettySize=auto;html=1;" edge="1" parent="WIyWlLk6GJQsqaUBKTNV-1" source="3FV-UpmjKZ0-qdDAkk3F-64" target="3FV-UpmjKZ0-qdDAkk3F-68">
          <mxGeometry relative="1" as="geometry" />
        </mxCell>
        <mxCell id="3FV-UpmjKZ0-qdDAkk3F-64" value="Data do evento posterior a data atual?" style="rhombus;whiteSpace=wrap;html=1;rounded=1;shadow=0;strokeWidth=1;glass=0;" vertex="1" parent="WIyWlLk6GJQsqaUBKTNV-1">
          <mxGeometry x="192.5" y="1170" width="115" height="120" as="geometry" />
        </mxCell>
        <mxCell id="3FV-UpmjKZ0-qdDAkk3F-65" value="" style="edgeStyle=orthogonalEdgeStyle;rounded=0;orthogonalLoop=1;jettySize=auto;html=1;exitX=0.444;exitY=0;exitDx=0;exitDy=0;exitPerimeter=0;" edge="1" parent="WIyWlLk6GJQsqaUBKTNV-1" source="3FV-UpmjKZ0-qdDAkk3F-66" target="3FV-UpmjKZ0-qdDAkk3F-71">
          <mxGeometry relative="1" as="geometry" />
        </mxCell>
        <mxCell id="3FV-UpmjKZ0-qdDAkk3F-66" value="Permitir o evento" style="whiteSpace=wrap;html=1;rounded=1;shadow=0;strokeWidth=1;glass=0;" vertex="1" parent="WIyWlLk6GJQsqaUBKTNV-1">
          <mxGeometry x="370" y="1200" width="135" height="60" as="geometry" />
        </mxCell>
        <mxCell id="3FV-UpmjKZ0-qdDAkk3F-67" value="Sim" style="text;html=1;strokeColor=none;fillColor=none;align=center;verticalAlign=middle;whiteSpace=wrap;rounded=0;" vertex="1" parent="WIyWlLk6GJQsqaUBKTNV-1">
          <mxGeometry x="310" y="1210" width="40" height="20" as="geometry" />
        </mxCell>
        <mxCell id="3FV-UpmjKZ0-qdDAkk3F-68" value="Cadastro não permitido, data inválida." style="whiteSpace=wrap;html=1;rounded=1;shadow=0;strokeWidth=1;glass=0;" vertex="1" parent="WIyWlLk6GJQsqaUBKTNV-1">
          <mxGeometry x="190" y="1340" width="120" height="60" as="geometry" />
        </mxCell>
        <mxCell id="3FV-UpmjKZ0-qdDAkk3F-69" value="Não" style="text;html=1;strokeColor=none;fillColor=none;align=center;verticalAlign=middle;whiteSpace=wrap;rounded=0;" vertex="1" parent="WIyWlLk6GJQsqaUBKTNV-1">
          <mxGeometry x="451.5" y="800" width="40" height="20" as="geometry" />
        </mxCell>
        <mxCell id="3FV-UpmjKZ0-qdDAkk3F-70" value="" style="edgeStyle=orthogonalEdgeStyle;rounded=0;orthogonalLoop=1;jettySize=auto;html=1;" edge="1" parent="WIyWlLk6GJQsqaUBKTNV-1" source="3FV-UpmjKZ0-qdDAkk3F-71" target="3FV-UpmjKZ0-qdDAkk3F-90">
          <mxGeometry relative="1" as="geometry" />
        </mxCell>
        <mxCell id="3FV-UpmjKZ0-qdDAkk3F-71" value="Nome&lt;br&gt;participante" style="shape=parallelogram;perimeter=parallelogramPerimeter;whiteSpace=wrap;html=1;fixedSize=1;rounded=1;shadow=0;strokeWidth=1;glass=0;" vertex="1" parent="WIyWlLk6GJQsqaUBKTNV-1">
          <mxGeometry x="370" y="1070" width="120" height="60" as="geometry" />
        </mxCell>
        <mxCell id="3FV-UpmjKZ0-qdDAkk3F-72" value="" style="edgeStyle=orthogonalEdgeStyle;rounded=0;orthogonalLoop=1;jettySize=auto;html=1;" edge="1" parent="WIyWlLk6GJQsqaUBKTNV-1" source="3FV-UpmjKZ0-qdDAkk3F-74" target="3FV-UpmjKZ0-qdDAkk3F-76">
          <mxGeometry relative="1" as="geometry" />
        </mxCell>
        <mxCell id="3FV-UpmjKZ0-qdDAkk3F-73" value="" style="edgeStyle=orthogonalEdgeStyle;rounded=0;orthogonalLoop=1;jettySize=auto;html=1;" edge="1" parent="WIyWlLk6GJQsqaUBKTNV-1" source="3FV-UpmjKZ0-qdDAkk3F-74" target="3FV-UpmjKZ0-qdDAkk3F-78">
          <mxGeometry relative="1" as="geometry" />
        </mxCell>
        <mxCell id="3FV-UpmjKZ0-qdDAkk3F-74" value="Participante&lt;br&gt;maior de&lt;br&gt;18 anos?" style="rhombus;whiteSpace=wrap;html=1;rounded=1;shadow=0;strokeWidth=1;glass=0;" vertex="1" parent="WIyWlLk6GJQsqaUBKTNV-1">
          <mxGeometry x="375" y="820" width="110" height="110" as="geometry" />
        </mxCell>
        <mxCell id="3FV-UpmjKZ0-qdDAkk3F-75" value="" style="edgeStyle=orthogonalEdgeStyle;rounded=0;orthogonalLoop=1;jettySize=auto;html=1;" edge="1" parent="WIyWlLk6GJQsqaUBKTNV-1" source="3FV-UpmjKZ0-qdDAkk3F-76" target="3FV-UpmjKZ0-qdDAkk3F-82">
          <mxGeometry relative="1" as="geometry" />
        </mxCell>
        <mxCell id="3FV-UpmjKZ0-qdDAkk3F-76" value="Cadastrar Participante" style="whiteSpace=wrap;html=1;rounded=1;shadow=0;strokeWidth=1;glass=0;" vertex="1" parent="WIyWlLk6GJQsqaUBKTNV-1">
          <mxGeometry x="537.5" y="845" width="120" height="60" as="geometry" />
        </mxCell>
        <mxCell id="3FV-UpmjKZ0-qdDAkk3F-77" value="" style="edgeStyle=orthogonalEdgeStyle;rounded=0;orthogonalLoop=1;jettySize=auto;html=1;" edge="1" parent="WIyWlLk6GJQsqaUBKTNV-1" source="3FV-UpmjKZ0-qdDAkk3F-78" target="3FV-UpmjKZ0-qdDAkk3F-96">
          <mxGeometry relative="1" as="geometry" />
        </mxCell>
        <mxCell id="3FV-UpmjKZ0-qdDAkk3F-78" value="Aviso: Cadastro não permitido para menores de idade." style="whiteSpace=wrap;html=1;rounded=1;shadow=0;strokeWidth=1;glass=0;" vertex="1" parent="WIyWlLk6GJQsqaUBKTNV-1">
          <mxGeometry x="370" y="730" width="120" height="60" as="geometry" />
        </mxCell>
        <mxCell id="3FV-UpmjKZ0-qdDAkk3F-79" value="Sim" style="text;html=1;strokeColor=none;fillColor=none;align=center;verticalAlign=middle;whiteSpace=wrap;rounded=0;" vertex="1" parent="WIyWlLk6GJQsqaUBKTNV-1">
          <mxGeometry x="485" y="845" width="40" height="20" as="geometry" />
        </mxCell>
        <mxCell id="3FV-UpmjKZ0-qdDAkk3F-80" value="" style="edgeStyle=orthogonalEdgeStyle;rounded=0;orthogonalLoop=1;jettySize=auto;html=1;" edge="1" parent="WIyWlLk6GJQsqaUBKTNV-1" source="3FV-UpmjKZ0-qdDAkk3F-82" target="3FV-UpmjKZ0-qdDAkk3F-83">
          <mxGeometry relative="1" as="geometry" />
        </mxCell>
        <mxCell id="3FV-UpmjKZ0-qdDAkk3F-81" value="" style="edgeStyle=orthogonalEdgeStyle;rounded=0;orthogonalLoop=1;jettySize=auto;html=1;" edge="1" parent="WIyWlLk6GJQsqaUBKTNV-1" source="3FV-UpmjKZ0-qdDAkk3F-82" target="3FV-UpmjKZ0-qdDAkk3F-86">
          <mxGeometry relative="1" as="geometry" />
        </mxCell>
        <mxCell id="3FV-UpmjKZ0-qdDAkk3F-82" value="Listar&lt;br&gt;participantes" style="shape=parallelogram;perimeter=parallelogramPerimeter;whiteSpace=wrap;html=1;fixedSize=1;rounded=1;shadow=0;strokeWidth=1;glass=0;" vertex="1" parent="WIyWlLk6GJQsqaUBKTNV-1">
          <mxGeometry x="537.5" y="930" width="120" height="60" as="geometry" />
        </mxCell>
        <mxCell id="3FV-UpmjKZ0-qdDAkk3F-83" value="Listar&lt;br&gt;palestrantes" style="shape=parallelogram;perimeter=parallelogramPerimeter;whiteSpace=wrap;html=1;fixedSize=1;rounded=1;shadow=0;strokeWidth=1;glass=0;" vertex="1" parent="WIyWlLk6GJQsqaUBKTNV-1">
          <mxGeometry x="537.5" y="1020" width="120" height="60" as="geometry" />
        </mxCell>
        <mxCell id="3FV-UpmjKZ0-qdDAkk3F-84" value="" style="edgeStyle=orthogonalEdgeStyle;rounded=0;orthogonalLoop=1;jettySize=auto;html=1;" edge="1" parent="WIyWlLk6GJQsqaUBKTNV-1" source="3FV-UpmjKZ0-qdDAkk3F-86" target="3FV-UpmjKZ0-qdDAkk3F-88">
          <mxGeometry relative="1" as="geometry" />
        </mxCell>
        <mxCell id="3FV-UpmjKZ0-qdDAkk3F-85" value="" style="edgeStyle=orthogonalEdgeStyle;rounded=0;orthogonalLoop=1;jettySize=auto;html=1;" edge="1" parent="WIyWlLk6GJQsqaUBKTNV-1" source="3FV-UpmjKZ0-qdDAkk3F-86" target="3FV-UpmjKZ0-qdDAkk3F-93">
          <mxGeometry relative="1" as="geometry" />
        </mxCell>
        <mxCell id="3FV-UpmjKZ0-qdDAkk3F-86" value="Nº de participantes menor do que 100?" style="rhombus;whiteSpace=wrap;html=1;rounded=1;shadow=0;strokeWidth=1;glass=0;" vertex="1" parent="WIyWlLk6GJQsqaUBKTNV-1">
          <mxGeometry x="677.5" y="910" width="100" height="100" as="geometry" />
        </mxCell>
        <mxCell id="3FV-UpmjKZ0-qdDAkk3F-87" value="" style="edgeStyle=orthogonalEdgeStyle;rounded=0;orthogonalLoop=1;jettySize=auto;html=1;" edge="1" parent="WIyWlLk6GJQsqaUBKTNV-1" source="3FV-UpmjKZ0-qdDAkk3F-88" target="3FV-UpmjKZ0-qdDAkk3F-95">
          <mxGeometry relative="1" as="geometry" />
        </mxCell>
        <mxCell id="3FV-UpmjKZ0-qdDAkk3F-88" value="Permitir cadastro" style="whiteSpace=wrap;html=1;rounded=1;shadow=0;strokeWidth=1;glass=0;" vertex="1" parent="WIyWlLk6GJQsqaUBKTNV-1">
          <mxGeometry x="667.5" y="1050" width="120" height="60" as="geometry" />
        </mxCell>
        <mxCell id="3FV-UpmjKZ0-qdDAkk3F-89" value="" style="edgeStyle=orthogonalEdgeStyle;rounded=0;orthogonalLoop=1;jettySize=auto;html=1;" edge="1" parent="WIyWlLk6GJQsqaUBKTNV-1" source="3FV-UpmjKZ0-qdDAkk3F-90" target="3FV-UpmjKZ0-qdDAkk3F-74">
          <mxGeometry relative="1" as="geometry" />
        </mxCell>
        <mxCell id="3FV-UpmjKZ0-qdDAkk3F-90" value="Data nascimento&lt;br&gt;participante" style="shape=parallelogram;perimeter=parallelogramPerimeter;whiteSpace=wrap;html=1;fixedSize=1;rounded=1;shadow=0;strokeWidth=1;glass=0;" vertex="1" parent="WIyWlLk6GJQsqaUBKTNV-1">
          <mxGeometry x="370" y="960" width="120" height="60" as="geometry" />
        </mxCell>
        <mxCell id="3FV-UpmjKZ0-qdDAkk3F-91" value="Sim" style="text;html=1;strokeColor=none;fillColor=none;align=center;verticalAlign=middle;whiteSpace=wrap;rounded=0;" vertex="1" parent="WIyWlLk6GJQsqaUBKTNV-1">
          <mxGeometry x="730" y="1010" width="40" height="20" as="geometry" />
        </mxCell>
        <mxCell id="3FV-UpmjKZ0-qdDAkk3F-92" style="edgeStyle=orthogonalEdgeStyle;rounded=0;orthogonalLoop=1;jettySize=auto;html=1;" edge="1" parent="WIyWlLk6GJQsqaUBKTNV-1" source="3FV-UpmjKZ0-qdDAkk3F-93" target="3FV-UpmjKZ0-qdDAkk3F-96">
          <mxGeometry relative="1" as="geometry" />
        </mxCell>
        <mxCell id="3FV-UpmjKZ0-qdDAkk3F-93" value="Aviso: cadastro não permitido por ter excedido nº de vagas&lt;br&gt;para este evento" style="whiteSpace=wrap;html=1;rounded=1;shadow=0;strokeWidth=1;glass=0;" vertex="1" parent="WIyWlLk6GJQsqaUBKTNV-1">
          <mxGeometry x="667.5" y="810" width="120" height="60" as="geometry" />
        </mxCell>
        <mxCell id="3FV-UpmjKZ0-qdDAkk3F-94" value="Não" style="text;html=1;strokeColor=none;fillColor=none;align=center;verticalAlign=middle;whiteSpace=wrap;rounded=0;" vertex="1" parent="WIyWlLk6GJQsqaUBKTNV-1">
          <mxGeometry x="730" y="890" width="40" height="20" as="geometry" />
        </mxCell>
        <mxCell id="3FV-UpmjKZ0-qdDAkk3F-95" value="Fim" style="ellipse;whiteSpace=wrap;html=1;rounded=1;shadow=0;strokeWidth=1;glass=0;" vertex="1" parent="WIyWlLk6GJQsqaUBKTNV-1">
          <mxGeometry x="667.5" y="1150" width="120" height="60" as="geometry" />
        </mxCell>
        <mxCell id="3FV-UpmjKZ0-qdDAkk3F-96" value="Fim" style="ellipse;whiteSpace=wrap;html=1;rounded=1;shadow=0;strokeWidth=1;glass=0;" vertex="1" parent="WIyWlLk6GJQsqaUBKTNV-1">
          <mxGeometry x="537.5" y="730" width="120" height="60" as="geometry" />
        </mxCell>
      </root>
    </mxGraphModel>
  </diagram>
</mxfile>
